{"glyphs":{":":{"x_min":0,"x_max":259,"ha":259,"o":"m 88 107 q 117 107 131 94 q 146 82 146 58 q 146 24 129 6 q 112 -12 81 -12 q 52 -12 38 0 q 24 12 24 37 q 24 70 41 88 q 58 107 88 107 z m 147 462 q 176 462 191 450 q 206 438 206 414 q 206 379 189 361 q 172 343 139 343 q 111 343 97 355 q 83 368 83 393 q 83 426 100 444 q 117 462 147 462 z"},"$":{"x_min":0,"x_max":500,"ha":500,"o":"m 252 271 l 215 43 q 258 51 286 85 q 313 119 313 165 q 313 196 298 223 q 282 250 252 271 z m 275 611 q 235 604 212 574 q 188 545 188 504 q 188 480 200 460 q 213 439 243 414 z m 295 728 l 328 728 l 316 657 q 351 656 388 650 q 426 643 465 631 l 445 521 q 388 570 357 590 q 327 611 309 612 l 272 388 l 327 342 q 369 308 389 271 q 409 235 409 194 q 409 114 352 59 q 295 3 207 -2 l 195 -76 l 162 -76 l 173 -4 q 128 0 91 6 q 53 13 21 23 l 43 142 q 104 83 134 62 q 164 41 181 40 l 223 294 q 154 352 127 393 q 100 434 100 477 q 100 552 150 601 q 200 650 283 656 z"},"?":{"x_min":0,"x_max":417,"ha":417,"o":"m 148 105 q 175 105 189 91 q 204 77 204 51 q 204 21 188 4 q 171 -12 141 -12 q 113 -12 99 0 q 85 13 85 38 q 85 68 102 87 q 120 105 148 105 z m 140 161 l 145 200 q 148 222 158 243 q 167 265 197 306 l 265 400 q 292 438 306 471 q 319 504 319 533 q 319 570 297 594 q 276 618 242 618 q 200 618 95 530 q 75 513 64 504 l 88 644 q 132 654 172 659 q 212 664 248 664 q 332 664 380 627 q 428 589 428 525 q 428 487 406 444 q 383 402 342 362 l 266 289 q 226 250 213 231 q 199 211 197 195 l 193 161 z"},"<":{"x_min":0,"x_max":833,"ha":833,"o":"m 704 491 l 231 298 l 704 106 l 704 31 l 129 267 l 129 330 l 704 566 z"},"'":{"x_min":0,"x_max":155,"ha":155,"o":"m 112 701 l 112 430 l 44 430 l 44 701 z"},"=":{"x_min":0,"x_max":833,"ha":833,"o":"m 709 235 l 709 167 l 124 167 l 124 235 z m 709 429 l 709 361 l 124 361 l 124 429 z"},"a":{"x_min":0,"x_max":468,"ha":468,"o":"m 320 404 q 308 410 296 412 q 284 415 271 415 q 241 415 215 400 q 190 385 170 355 q 144 315 128 259 q 112 203 112 148 q 112 108 125 88 q 137 68 163 68 q 178 68 202 78 q 226 88 266 112 z m 335 436 l 424 465 l 358 98 q 356 90 356 84 q 355 78 355 76 q 355 70 360 67 q 365 64 378 64 l 409 64 q 375 29 345 11 q 315 -7 290 -7 q 272 -7 262 3 q 252 12 252 30 q 252 35 253 42 q 254 50 257 67 l 265 103 q 217 46 178 20 q 139 -7 105 -7 q 61 -7 36 31 q 11 68 11 134 q 11 190 27 247 q 42 304 68 345 q 108 409 154 441 q 199 472 250 472 q 273 472 294 463 q 315 455 335 436 z"},"L":{"x_min":0,"x_max":433,"ha":433,"o":"m 99 655 l 281 655 q 232 605 222 538 q 221 534 221 533 l 137 41 l 218 41 q 271 41 381 127 q 398 141 407 148 l 365 0 l -9 0 q 39 49 51 121 q 52 124 52 125 l 127 556 q 128 562 128 567 q 129 572 129 578 q 129 594 124 609 q 118 624 99 655 z"},"3":{"x_min":0,"x_max":500,"ha":500,"o":"m 270 333 q 342 326 381 285 q 420 245 420 179 q 420 139 399 100 q 379 62 342 34 q 309 9 268 -3 q 227 -15 175 -15 q 128 -15 81 -7 q 33 1 -12 18 l 11 152 q 21 141 40 120 q 122 29 173 29 q 233 29 272 73 q 311 116 311 184 q 311 243 275 278 q 239 312 166 322 q 259 354 307 407 q 356 460 356 528 q 356 568 331 595 q 307 622 269 622 q 252 622 236 615 q 219 609 203 596 l 91 504 l 115 643 q 158 654 200 660 q 243 666 284 666 q 367 666 415 628 q 464 589 464 525 q 464 462 414 413 q 365 363 270 333 z"},";":{"x_min":0,"x_max":259,"ha":259,"o":"m -1 -123 q 25 -95 42 -65 q 59 -35 66 -2 l 61 -2 q 44 -2 34 10 q 23 22 23 40 q 23 70 41 88 q 58 107 86 107 q 112 107 127 91 q 142 75 142 47 q 142 -17 100 -67 q 58 -118 -1 -123 z m 147 462 q 176 462 191 450 q 206 438 206 414 q 206 379 189 361 q 172 343 139 343 q 111 343 97 355 q 83 368 83 393 q 83 426 100 444 q 117 462 147 462 z"},"J":{"x_min":0,"x_max":280,"ha":280,"o":"m 108 655 l 290 655 q 245 610 231 536 l 231 533 l 149 59 q 133 -33 120 -70 q 107 -107 87 -132 q 58 -168 14 -187 q -30 -206 -87 -206 q -112 -206 -136 -203 q -159 -200 -178 -194 l -158 -80 l -146 -91 q -74 -161 -50 -161 q -17 -161 5 -122 q 27 -83 42 6 l 135 546 q 135 548 136 551 q 139 569 139 578 q 139 593 132 610 q 125 628 108 655 z"},"V":{"x_min":0,"x_max":521,"ha":521,"o":"m 27 655 l 204 655 q 189 635 181 618 q 174 600 174 584 q 174 576 174 569 q 175 561 176 553 l 223 95 l 458 559 q 468 579 471 590 q 475 602 475 611 q 475 618 471 627 q 466 636 452 655 l 605 655 q 559 617 528 561 l 527 558 l 226 14 l 145 -14 l 81 544 q 77 579 64 604 q 52 628 27 655 z"},"\"":{"x_min":0,"x_max":300,"ha":300,"o":"m 256 701 l 256 430 l 188 430 l 188 701 z m 112 701 l 112 430 l 44 430 l 44 701 z"},"7":{"x_min":0,"x_max":500,"ha":500,"o":"m 122 657 l 535 657 q 413 460 317 288 q 221 116 170 0 l 41 0 l 428 572 l 238 572 q 189 572 106 502 q 95 492 89 487 z"},"S":{"x_min":0,"x_max":463,"ha":463,"o":"m 450 637 l 431 525 q 424 530 412 541 q 317 618 281 618 q 235 618 202 587 q 169 556 169 512 q 169 487 181 466 q 193 444 227 413 q 240 401 286 362 q 333 322 357 294 q 375 273 384 247 q 393 221 393 190 q 393 103 329 45 q 266 -12 166 -12 q 128 -12 86 -5 q 43 1 -3 15 l 19 136 q 87 69 117 51 q 146 32 171 32 q 222 32 259 69 q 295 105 295 157 q 295 216 205 294 q 182 314 170 325 q 120 370 99 405 q 79 440 79 481 q 79 563 138 613 q 196 663 294 663 q 334 663 373 656 q 412 650 450 637 z"},"}":{"x_min":0,"x_max":500,"ha":500,"o":"m 281 546 l 281 426 q 281 354 307 324 q 333 295 397 295 q 400 295 408 295 q 415 296 419 296 l 419 223 q 416 223 408 224 q 401 224 398 224 q 333 224 307 195 q 281 165 281 92 l 281 -28 q 281 -100 270 -131 q 259 -162 232 -178 q 211 -191 182 -197 q 152 -202 99 -202 l 78 -202 l 78 -130 l 97 -130 q 156 -130 176 -108 q 197 -86 197 -17 l 197 100 q 197 178 219 211 q 240 245 295 259 q 240 273 219 307 q 197 340 197 418 l 197 536 q 197 604 176 626 q 156 648 97 648 l 78 648 l 78 721 l 96 721 q 148 721 180 715 q 211 709 232 696 q 259 679 270 649 q 281 618 281 546 z"},"Z":{"x_min":0,"x_max":501,"ha":501,"o":"m 107 655 l 539 655 l 113 42 l 258 42 q 289 42 326 60 q 363 77 445 136 l 405 0 l -30 0 l 400 613 l 263 613 q 216 613 104 539 q 92 531 86 527 z"},"x":{"x_min":0,"x_max":440,"ha":440,"o":"m 166 470 l 239 291 l 284 344 q 293 354 297 365 q 302 376 302 388 q 302 392 301 397 q 299 403 297 407 l 275 448 q 300 458 323 464 q 347 470 364 470 q 385 470 396 461 q 407 452 407 435 q 407 418 393 397 q 378 375 351 350 l 251 259 l 317 91 q 323 74 330 70 q 336 66 350 66 l 381 66 q 356 31 332 12 q 308 -6 287 -6 q 271 -6 261 3 q 250 12 240 39 l 175 200 l 119 135 q 103 116 95 102 q 87 88 87 78 q 87 72 94 57 q 96 53 97 51 l 114 18 q 89 6 66 0 q 44 -6 25 -6 q 8 -6 -3 5 q -14 15 -14 32 q -14 53 2 77 q 18 101 70 150 l 162 235 l 117 350 q 112 361 103 374 q 94 387 85 395 l 47 428 z"},")":{"x_min":0,"x_max":259,"ha":259,"o":"m 94 710 q 151 663 182 582 q 212 501 212 396 q 212 291 185 182 q 158 73 110 -16 q 76 -78 31 -126 q -14 -173 -71 -207 q -27 -147 9 -68 q 44 11 74 116 q 101 210 115 308 q 129 405 129 495 q 129 555 120 608 q 112 662 94 710 z"},"&":{"x_min":0,"x_max":644,"ha":644,"o":"m 333 323 l 322 323 q 269 323 242 317 q 214 312 191 298 q 159 279 143 246 q 126 213 126 169 q 126 107 167 74 q 208 40 284 40 q 321 40 353 46 q 385 53 403 63 q 423 74 430 111 q 431 117 431 119 l 467 323 z m 484 639 l 465 526 q 456 534 438 549 q 355 621 318 621 q 272 621 241 581 q 211 541 211 478 q 211 418 241 394 q 271 370 349 370 l 653 370 l 645 323 l 569 323 l 558 250 q 545 167 527 129 q 509 90 478 60 q 440 24 384 4 q 327 -15 259 -15 q 146 -15 83 34 q 19 83 19 171 q 19 248 75 297 q 131 346 229 353 q 169 361 137 396 q 104 431 104 487 q 104 564 167 614 q 229 663 330 663 q 373 663 412 657 q 451 651 484 639 z"},"_":{"x_min":0,"x_max":500,"ha":500,"o":"m 500 -166 l 500 -236 l 0 -236 l 0 -166 z"},"v":{"x_min":0,"x_max":403,"ha":403,"o":"m 143 471 l 182 103 l 291 327 q 298 341 302 354 q 305 366 305 375 q 305 386 298 403 q 292 420 277 445 q 302 458 323 465 q 344 471 362 471 q 381 471 393 460 q 405 448 405 430 q 405 411 378 367 l 377 365 l 153 -9 l 108 -9 l 66 330 q 63 353 58 367 q 52 382 42 394 l 13 428 z"},"O":{"x_min":0,"x_max":590,"ha":590,"o":"m 457 435 q 457 526 426 574 q 395 622 336 622 q 285 622 244 580 q 203 538 176 457 q 155 396 143 332 q 132 267 132 211 q 132 125 165 76 q 198 27 256 27 q 304 27 342 63 q 379 99 409 175 q 432 233 445 301 q 457 369 457 435 z m 351 664 q 451 664 506 600 q 561 536 561 419 q 561 354 546 289 q 532 224 506 171 q 458 76 392 30 q 326 -16 237 -16 q 139 -16 84 50 q 29 117 29 235 q 29 302 47 372 q 64 441 96 497 q 143 580 207 622 q 271 664 351 664 z"},"(":{"x_min":0,"x_max":259,"ha":259,"o":"m 320 710 q 277 652 241 573 q 206 494 175 387 q 148 293 134 197 q 120 100 120 10 q 120 -47 129 -102 q 138 -156 155 -207 q 97 -159 67 -79 q 37 0 37 106 q 37 211 64 321 q 91 430 139 519 q 173 581 218 628 q 263 676 320 710 z"},"C":{"x_min":0,"x_max":535,"ha":535,"o":"m 552 638 l 534 525 l 434 603 q 422 612 408 617 q 394 622 378 622 q 335 622 292 595 q 248 568 214 521 q 178 471 158 392 q 138 313 138 220 q 138 137 177 85 q 216 34 279 34 q 298 34 315 39 q 332 43 344 52 l 477 145 l 434 11 q 395 0 354 -6 q 313 -12 272 -12 q 161 -12 95 53 q 30 119 30 230 q 30 314 52 389 q 74 464 117 526 q 164 594 233 630 q 302 665 388 665 q 433 665 474 658 q 515 651 552 638 z"},"W":{"x_min":0,"x_max":845,"ha":845,"o":"m 34 655 l 212 655 q 195 638 188 620 q 180 603 180 579 q 180 575 181 568 q 181 560 181 556 l 213 115 l 500 662 l 516 662 l 562 101 l 776 559 q 785 578 789 590 q 793 603 793 612 q 793 619 789 627 q 784 635 767 655 l 919 655 q 876 624 849 570 q 847 566 846 564 l 567 16 l 482 -13 l 442 444 l 219 17 l 132 -13 l 88 539 q 84 578 72 604 q 60 629 34 655 z"},"A":{"x_min":0,"x_max":532,"ha":532,"o":"m 311 568 l 178 302 l 337 302 z m 389 673 l 452 109 q 457 70 468 48 q 480 25 505 0 l 330 0 q 347 25 353 39 q 358 52 358 66 q 358 69 357 79 q 356 85 356 89 l 341 260 l 157 260 l 69 85 q 63 74 61 65 q 58 56 58 49 q 58 42 62 32 q 67 22 81 0 l -73 0 q -48 21 -28 45 q -8 70 10 104 l 307 647 z"},"f":{"x_min":0,"x_max":281,"ha":281,"o":"m 444 692 l 424 593 l 347 651 q 334 661 324 665 q 314 669 304 669 q 263 669 241 625 q 219 582 204 463 l 318 463 l 312 424 l 197 424 l 136 70 q 109 -88 63 -147 q 17 -206 -70 -206 q -91 -206 -111 -201 q -132 -196 -153 -185 l -135 -86 l -73 -148 q -62 -159 -56 -162 q -50 -165 -42 -165 q -15 -165 1 -132 q 17 -98 34 5 l 104 424 l 42 424 l 49 463 l 112 463 q 123 600 172 654 q 220 708 330 708 q 359 708 388 704 q 417 700 444 692 z"},"Q":{"x_min":0,"x_max":590,"ha":590,"o":"m 320 0 q 340 -13 377 -36 q 513 -123 570 -123 q 582 -123 597 -122 q 611 -121 627 -118 q 592 -161 557 -184 q 522 -208 495 -208 q 454 -208 384 -162 q 315 -116 199 -10 q 120 3 76 68 q 32 132 32 235 q 32 300 48 367 q 64 434 94 489 q 139 574 203 619 q 267 664 343 664 q 445 664 501 601 q 558 538 558 425 q 558 264 494 150 q 430 37 320 0 z m 455 436 q 455 527 425 575 q 395 622 337 622 q 287 622 245 579 q 204 536 177 454 q 157 393 146 331 q 135 268 135 213 q 135 126 167 77 q 199 28 255 28 q 303 28 341 65 q 379 103 409 179 q 431 236 443 303 q 455 370 455 436 z"},"w":{"x_min":0,"x_max":650,"ha":650,"o":"m 152 471 l 188 129 l 343 463 l 387 463 l 429 106 l 534 332 q 540 345 543 355 q 546 365 546 373 q 546 379 544 385 q 543 391 540 397 l 516 447 q 544 459 564 465 q 584 471 599 471 q 622 471 633 461 q 645 451 645 432 q 645 421 640 407 q 636 394 627 379 l 403 -11 l 356 -11 l 319 314 l 171 -11 l 118 -11 l 72 343 q 70 359 65 373 q 61 386 54 393 l 21 430 z"},"-":{"x_min":0,"x_max":237,"ha":237,"o":"m 3 281 l 219 281 l 206 208 l -10 208 z"},"E":{"x_min":0,"x_max":475,"ha":475,"o":"m 99 655 l 484 655 l 463 539 l 457 544 q 366 616 325 616 l 234 616 l 189 354 l 263 354 q 288 354 314 365 q 341 376 391 410 l 364 251 q 319 292 298 303 q 278 314 258 314 l 183 314 l 135 39 l 225 39 q 258 39 298 60 q 337 80 420 146 l 373 0 l -9 0 q 39 49 51 121 q 52 124 52 125 l 127 556 q 128 562 128 567 q 129 572 129 578 q 129 594 124 609 q 118 624 99 655 z"},"s":{"x_min":0,"x_max":344,"ha":344,"o":"m 325 454 l 306 355 q 298 361 284 373 q 215 427 186 427 q 161 427 144 409 q 127 392 127 366 q 127 350 135 334 q 144 319 160 305 l 224 249 q 253 225 266 198 q 280 172 280 140 q 280 74 233 31 q 186 -12 111 -12 q 79 -12 49 -7 q 19 -1 -10 9 l 9 112 q 16 105 29 93 q 98 30 131 30 q 159 30 179 52 q 198 73 198 105 q 198 123 188 140 q 178 157 158 175 l 98 229 q 68 255 56 279 q 44 302 44 331 q 44 393 93 434 q 142 474 219 474 q 239 474 261 470 q 284 466 325 454 z"},">":{"x_min":0,"x_max":833,"ha":833,"o":"m 704 330 l 704 267 l 129 31 l 129 106 l 603 298 l 129 491 l 129 566 z"},"l":{"x_min":0,"x_max":235,"ha":235,"o":"m 234 709 l 121 91 q 120 83 119 80 q 119 77 119 74 q 119 68 125 65 q 131 62 141 62 l 171 62 q 141 28 111 11 q 81 -7 53 -7 q 35 -7 26 1 q 17 9 17 24 q 17 28 18 35 q 19 42 20 51 l 114 568 q 116 577 117 586 q 118 594 118 602 q 118 614 115 623 q 113 633 107 642 l 87 677 z"},"8":{"x_min":0,"x_max":500,"ha":500,"o":"m 223 314 q 156 271 124 227 q 92 182 92 134 q 92 83 123 53 q 154 24 209 24 q 264 24 302 61 q 340 99 340 152 q 340 187 325 214 q 311 241 275 271 z m 290 382 q 343 416 369 453 q 396 491 396 533 q 396 574 367 601 q 337 627 291 627 q 244 627 212 598 q 181 569 181 526 q 181 500 196 474 q 211 448 239 424 z m 312 364 q 374 324 404 278 q 434 231 434 178 q 434 95 369 40 q 304 -16 205 -16 q 113 -16 58 25 q 3 66 3 134 q 3 195 51 243 q 100 291 203 333 q 142 376 116 414 q 90 452 90 496 q 90 570 149 618 q 208 666 301 666 q 380 666 429 628 q 478 590 478 530 q 478 479 436 437 q 394 395 312 364 z"},"\\":{"x_min":0,"x_max":235,"ha":235,"o":"m 116 -152 l 47 681 l 102 681 l 172 -152 z"},"e":{"x_min":0,"x_max":391,"ha":391,"o":"m 123 269 q 202 279 237 307 q 272 334 272 385 q 272 408 261 420 q 250 433 232 433 q 195 433 167 391 q 139 349 123 269 z m 340 116 q 295 55 240 22 q 186 -10 129 -10 q 74 -10 43 32 q 11 73 11 147 q 11 287 81 379 q 151 472 256 472 q 308 472 338 445 q 369 417 369 373 q 369 309 317 277 q 264 244 162 244 l 157 244 l 120 244 q 116 224 114 206 q 112 187 112 170 q 112 117 131 90 q 149 64 187 64 q 216 64 257 78 q 297 91 340 116 z"},"b":{"x_min":0,"x_max":476,"ha":476,"o":"m 118 58 q 131 52 144 49 q 158 46 172 46 q 206 46 233 62 q 260 78 280 109 q 306 150 321 207 q 336 263 336 317 q 336 355 322 374 q 307 393 278 393 q 259 393 233 382 q 208 371 171 347 z m 234 708 l 173 359 q 225 419 264 447 q 304 474 338 474 q 382 474 408 434 q 433 395 433 325 q 433 287 427 250 q 420 212 407 176 q 376 89 320 41 q 265 -8 196 -8 q 170 -8 146 0 q 123 7 102 22 l 14 -6 l 116 569 q 118 579 119 588 q 120 598 120 604 q 120 615 114 629 q 108 643 88 676 z"},"%":{"x_min":0,"x_max":531,"ha":531,"o":"m 396 265 q 359 265 336 214 q 313 163 313 80 q 313 47 323 31 q 334 16 356 16 q 393 16 416 68 q 438 120 438 206 q 438 235 427 250 q 417 265 396 265 z m 241 91 q 241 184 288 239 q 334 295 410 295 q 457 295 484 265 q 511 235 511 182 q 511 94 464 38 q 417 -17 341 -17 q 294 -17 268 12 q 241 41 241 91 z m 469 603 l 492 583 l 67 54 l 45 73 z m 175 635 q 138 635 115 583 q 91 532 91 449 q 91 417 101 401 q 112 386 134 386 q 171 386 194 438 q 217 489 217 575 q 217 604 206 619 q 195 635 175 635 z m 20 460 q 20 552 67 609 q 113 665 188 665 q 235 665 263 635 q 290 604 290 552 q 290 513 278 475 q 265 437 243 408 q 220 378 191 365 q 162 352 120 352 q 73 352 47 381 q 20 409 20 460 z"},"m":{"x_min":0,"x_max":742,"ha":742,"o":"m 200 471 l 178 360 q 245 421 290 448 q 334 474 370 474 q 401 474 417 458 q 432 441 432 408 q 432 401 430 388 q 428 375 425 359 q 485 417 532 446 q 580 474 617 474 q 645 474 661 457 q 677 440 677 411 q 677 399 675 386 q 674 374 671 360 l 619 98 q 619 95 617 89 q 616 83 616 80 q 616 72 621 69 q 625 66 646 66 l 672 66 q 640 30 609 11 q 579 -7 552 -7 q 535 -7 526 3 q 517 13 517 33 q 517 40 518 51 q 520 61 522 73 l 572 345 q 574 354 574 359 q 575 363 575 367 q 575 380 568 388 q 560 396 547 396 q 529 396 495 383 q 460 371 423 349 l 359 0 l 264 0 l 327 345 q 329 353 329 358 q 330 363 330 366 q 330 380 323 388 q 315 396 302 396 q 288 396 253 384 q 218 371 177 350 l 115 0 l 21 0 l 81 337 q 82 340 83 347 q 84 355 84 359 q 84 369 81 379 q 78 390 72 401 l 54 432 z"},"#":{"x_min":0,"x_max":769,"ha":769,"o":"m 473 419 l 346 419 l 301 290 l 428 290 z m 451 712 l 372 490 l 497 490 l 577 712 l 657 712 l 579 490 l 726 490 l 701 419 l 553 419 l 508 291 l 665 291 l 640 219 l 483 219 l 404 -2 l 323 -2 l 402 219 l 276 219 l 197 -2 l 116 -2 l 194 219 l 43 219 l 69 291 l 220 291 l 265 419 l 104 419 l 129 490 l 291 490 l 370 712 z"},",":{"x_min":0,"x_max":250,"ha":250,"o":"m -3 -123 q 23 -95 40 -65 q 57 -35 64 -2 l 59 -2 q 42 -2 32 10 q 21 22 21 40 q 21 69 39 88 q 57 107 85 107 q 111 107 126 91 q 140 76 140 47 q 140 -17 98 -67 q 56 -118 -3 -123 z"},"n":{"x_min":0,"x_max":478,"ha":478,"o":"m 191 471 l 169 358 q 231 419 277 447 q 324 474 364 474 q 391 474 407 458 q 423 441 423 414 q 423 403 421 389 q 419 375 416 358 l 365 97 q 364 92 363 87 q 363 83 363 78 q 363 70 368 68 q 374 65 391 65 l 417 65 q 387 30 356 12 q 326 -7 299 -7 q 279 -7 271 2 q 262 12 262 33 q 262 40 263 49 q 264 57 266 68 l 318 339 q 320 349 321 356 q 322 364 322 369 q 322 382 314 389 q 307 395 292 395 q 273 395 241 383 q 209 371 167 347 l 105 0 l 13 0 l 72 334 q 73 339 74 344 q 74 350 74 362 q 74 372 72 381 q 69 391 64 399 l 45 432 z"},"h":{"x_min":0,"x_max":478,"ha":478,"o":"m 231 708 l 167 359 q 230 418 276 446 q 323 474 358 474 q 387 474 404 458 q 421 441 421 413 q 421 405 419 392 q 417 379 413 355 l 366 98 q 366 94 365 88 q 363 83 363 80 q 363 71 366 68 q 370 65 387 65 l 417 65 q 385 28 355 11 q 326 -7 297 -7 q 280 -7 271 3 q 262 12 262 31 q 262 37 263 45 q 264 54 267 70 l 315 340 q 316 345 317 352 q 319 364 319 367 q 319 380 312 387 q 305 394 291 394 q 272 394 240 382 q 208 371 166 348 l 103 0 l 10 0 l 111 569 q 111 571 112 577 q 115 596 115 604 q 115 617 108 634 q 101 651 83 677 z"},"z":{"x_min":0,"x_max":428,"ha":428,"o":"m 78 463 l 416 463 l 86 69 q 96 72 108 74 q 121 76 133 76 l 246 77 q 271 77 284 81 q 298 85 312 96 l 372 140 q 350 47 326 23 q 303 -2 245 -2 l 204 -2 l 76 3 l 58 3 l 17 3 q 6 3 -6 2 q -18 0 -34 -2 l 292 386 l 157 386 q 141 386 130 383 q 120 379 111 372 l 53 316 z"},"B":{"x_min":0,"x_max":515,"ha":515,"o":"m 180 311 l 134 38 l 206 38 q 270 38 309 82 q 348 125 348 196 q 348 253 314 282 q 281 311 214 311 z m 233 616 l 186 348 l 223 348 q 300 348 341 392 q 383 435 383 515 q 383 565 356 591 q 330 616 277 616 z m 98 655 l 303 655 q 396 655 442 620 q 489 585 489 515 q 489 435 438 385 q 387 335 297 329 q 369 325 412 287 q 454 248 454 187 q 454 97 390 49 q 326 0 207 0 l -10 0 q 16 25 30 51 q 43 78 51 122 l 126 555 q 127 561 127 566 q 128 571 128 576 q 128 593 122 609 q 116 626 98 655 z"},"K":{"x_min":0,"x_max":558,"ha":558,"o":"m 431 655 l 622 655 q 591 636 563 616 q 536 596 513 575 l 294 377 l 447 83 q 459 58 477 38 q 494 18 517 0 l 378 0 l 200 352 l 429 573 q 441 585 448 596 q 454 606 454 614 q 454 621 449 630 q 444 639 431 655 z m 102 655 l 282 655 q 257 630 244 604 q 230 578 223 533 l 150 109 q 150 108 149 105 q 146 85 146 77 q 146 61 153 42 q 161 23 177 0 l -6 0 q 20 25 34 52 q 48 78 56 121 l 129 546 q 130 555 131 563 q 132 570 132 577 q 132 593 125 611 q 118 629 102 655 z"},"R":{"x_min":0,"x_max":536,"ha":536,"o":"m 235 616 l 189 350 l 240 350 q 305 350 347 396 q 389 442 389 513 q 389 567 365 592 q 341 616 288 616 z m 100 655 l 300 655 q 353 655 377 652 q 401 649 416 642 q 454 625 474 593 q 495 560 495 516 q 495 435 441 383 q 388 331 297 326 l 409 104 q 423 77 442 51 q 462 24 487 0 l 350 0 l 187 336 l 147 103 q 147 102 146 100 q 143 82 143 74 q 143 52 172 2 l 174 0 l -7 0 q 19 29 32 56 q 46 83 53 124 l 126 546 q 128 555 129 565 q 130 574 130 583 q 130 597 123 615 q 116 632 100 655 z"},"T":{"x_min":0,"x_max":505,"ha":505,"o":"m 53 655 l 561 655 l 537 526 q 532 531 523 539 q 442 615 408 615 l 348 615 l 263 110 q 260 92 259 84 q 258 76 258 71 q 258 59 264 44 q 271 29 289 0 l 106 0 q 131 25 145 52 q 159 78 166 123 l 251 615 l 195 615 q 163 615 48 537 l 31 526 z"},"P":{"x_min":0,"x_max":480,"ha":480,"o":"m 97 655 l 314 655 q 405 655 453 615 q 501 576 501 501 q 501 412 446 353 q 391 293 309 293 q 281 293 256 300 q 230 306 210 319 q 214 319 223 318 q 236 317 239 317 q 308 317 350 367 q 393 417 393 499 q 393 558 368 589 q 343 619 295 619 l 234 619 l 145 109 q 144 100 143 92 q 142 84 142 77 q 142 60 149 41 q 156 22 172 0 l -10 0 q 15 25 29 51 q 43 76 51 121 l 124 546 q 125 548 125 552 q 128 569 128 577 q 128 592 121 610 q 114 628 97 655 z"},"|":{"x_min":0,"x_max":500,"ha":500,"o":"m 287 764 l 287 -236 l 214 -236 l 214 764 z"},"t":{"x_min":0,"x_max":318,"ha":318,"o":"m 136 580 l 228 580 l 206 463 l 332 463 l 325 425 l 199 425 l 142 125 q 140 115 139 107 q 138 99 138 95 q 138 82 145 75 q 151 68 164 68 q 187 68 218 79 q 249 90 287 112 q 245 56 196 24 q 147 -8 105 -8 q 75 -8 56 10 q 37 27 37 55 q 37 63 39 74 q 40 86 43 100 l 105 425 l 44 425 l 52 463 l 112 463 z"},"M":{"x_min":0,"x_max":773,"ha":773,"o":"m 98 655 l 236 655 l 351 164 l 649 655 l 781 655 q 756 628 743 603 q 729 578 724 543 l 650 106 q 648 97 648 88 q 647 79 647 70 q 647 58 654 41 q 661 23 676 0 l 494 0 q 544 49 556 121 q 557 125 557 128 l 624 516 l 313 -5 l 293 -5 l 173 513 l 105 105 q 104 103 104 96 q 101 80 101 68 q 101 57 108 42 q 115 26 132 0 l -8 0 q 19 30 33 58 q 47 86 53 121 l 127 558 q 128 566 129 572 q 130 577 130 580 q 130 597 124 613 q 117 628 98 655 z"},"g":{"x_min":0,"x_max":502,"ha":502,"o":"m 115 22 q 77 -8 56 -38 q 36 -67 36 -91 q 36 -124 70 -144 q 104 -163 163 -163 q 238 -163 290 -132 q 343 -101 343 -61 q 343 -44 331 -35 q 319 -25 287 -18 z m 229 438 q 193 438 169 400 q 145 363 145 304 q 145 256 164 229 q 184 202 218 202 q 258 202 282 238 q 306 273 306 333 q 306 383 286 410 q 265 438 229 438 z m 510 471 l 495 387 l 351 428 q 375 405 386 379 q 398 353 398 323 q 398 256 347 212 q 295 168 216 168 q 211 168 204 168 q 197 169 186 170 q 171 154 164 142 q 156 129 156 120 q 156 108 166 101 q 177 94 210 87 l 346 56 q 396 45 416 28 q 435 10 435 -22 q 435 -96 355 -151 q 275 -205 160 -205 q 71 -205 10 -174 q -52 -142 -52 -100 q -52 -71 -15 -42 q 22 -12 108 25 q 83 32 71 45 q 58 59 58 76 q 58 96 78 114 q 98 131 177 171 q 116 181 82 216 q 48 252 48 307 q 48 379 101 427 q 154 474 237 474 q 263 474 289 466 q 315 457 340 440 z"},"j":{"x_min":0,"x_max":262,"ha":262,"o":"m 212 471 l 134 33 q 111 -97 66 -152 q 20 -206 -63 -206 q -85 -206 -107 -202 q -129 -197 -151 -188 l -133 -85 l -66 -150 q -58 -158 -51 -162 q -44 -165 -37 -165 q -12 -165 4 -132 q 20 -99 36 -6 l 93 326 q 95 337 96 347 q 97 356 97 362 q 97 371 94 380 q 92 390 86 400 l 67 434 z m 200 691 q 226 691 239 679 q 253 667 253 645 q 253 617 237 601 q 220 585 191 585 q 168 585 155 597 q 142 609 142 630 q 142 657 158 674 q 174 691 200 691 z"},"i":{"x_min":0,"x_max":264,"ha":264,"o":"m 208 469 l 135 99 q 134 94 133 89 q 133 84 133 78 q 133 69 138 66 q 143 63 155 63 l 185 63 q 156 29 126 11 q 96 -7 69 -7 q 51 -7 42 3 q 32 12 32 30 q 32 35 33 43 q 34 52 36 64 l 85 326 q 85 328 86 332 q 91 355 91 366 q 91 378 84 394 q 78 411 62 438 z m 190 691 q 216 691 229 679 q 243 667 243 645 q 243 617 227 601 q 210 585 181 585 q 158 585 145 597 q 132 609 132 631 q 132 658 148 674 q 164 691 190 691 z"},"y":{"x_min":0,"x_max":400,"ha":400,"o":"m 141 470 l 187 116 l 295 336 q 299 343 301 352 q 303 362 303 372 q 303 380 301 390 q 299 399 296 405 l 273 447 q 302 458 323 464 q 344 470 358 470 q 377 470 390 459 q 402 449 402 433 q 402 421 396 404 q 389 387 375 363 l 108 -98 q 75 -155 43 -180 q 10 -205 -30 -205 q -44 -205 -60 -201 q -75 -197 -93 -189 l -75 -79 l -24 -126 q -17 -133 -10 -137 q -3 -140 5 -140 q 18 -140 31 -130 q 43 -120 55 -101 l 117 0 l 66 338 q 63 359 58 372 q 53 384 45 393 l 9 431 z"},"@":{"x_min":0,"x_max":1000,"ha":1000,"o":"m 627 417 l 655 473 l 719 473 l 648 192 q 646 184 645 177 q 644 169 644 163 q 644 141 656 129 q 669 117 693 117 q 716 117 743 130 q 770 143 795 167 q 834 204 856 258 q 878 312 878 372 q 878 499 785 577 q 692 656 541 656 q 476 656 421 642 q 366 628 318 600 q 225 544 173 454 q 122 363 122 254 q 122 167 152 104 q 182 40 246 -9 q 295 -46 362 -67 q 428 -87 502 -87 q 584 -87 662 -63 q 740 -39 805 6 l 832 -34 q 760 -88 678 -116 q 597 -143 508 -143 q 415 -143 338 -120 q 261 -97 201 -52 q 126 6 89 82 q 52 158 52 255 q 52 335 77 408 q 103 480 151 539 q 222 626 323 671 q 423 716 545 716 q 625 716 696 694 q 768 672 820 632 q 883 583 916 519 q 949 455 949 381 q 949 295 918 227 q 887 159 828 112 q 795 85 755 71 q 715 57 674 57 q 625 57 601 76 q 576 96 576 134 l 576 143 q 549 100 513 79 q 477 58 429 58 q 354 58 315 100 q 276 141 276 220 q 276 335 343 413 q 411 490 509 490 q 550 490 580 472 q 609 454 627 417 z m 581 232 l 610 347 q 602 390 576 414 q 551 437 513 437 q 446 437 400 374 q 354 310 354 218 q 354 167 378 139 q 401 111 445 111 q 492 111 530 145 q 568 178 581 232 z"},".":{"x_min":0,"x_max":250,"ha":250,"o":"m 89 107 q 118 107 132 94 q 147 82 147 58 q 147 24 131 6 q 114 -12 83 -12 q 54 -12 39 0 q 25 12 25 37 q 25 70 42 88 q 59 107 89 107 z"},"p":{"x_min":0,"x_max":470,"ha":470,"o":"m 113 58 q 126 52 139 49 q 152 46 166 46 q 234 46 282 124 q 330 202 330 316 q 330 355 317 375 q 304 395 278 395 q 261 395 238 386 q 215 377 165 350 z m -67 -206 q -41 -178 -26 -150 q -12 -122 -4 -76 l 70 336 q 71 344 72 349 q 72 354 72 358 q 72 368 69 379 q 66 390 60 400 l 42 432 l 186 469 l 167 360 q 218 417 259 446 q 300 474 331 474 q 376 474 403 436 q 429 398 429 332 q 429 272 413 214 q 396 155 366 108 q 330 51 286 22 q 242 -7 190 -7 q 165 -7 144 0 q 124 6 106 19 l 83 -107 q 82 -114 81 -123 q 80 -131 80 -140 q 80 -151 87 -167 q 94 -183 108 -206 z"},"X":{"x_min":0,"x_max":586,"ha":586,"o":"m 97 655 l 272 655 q 260 640 255 629 q 250 618 250 609 q 250 603 252 595 q 254 588 259 577 l 329 411 l 460 586 q 466 594 470 602 q 473 610 473 616 q 473 622 468 630 q 463 639 451 655 l 630 655 q 601 640 574 618 q 548 597 521 565 l 349 363 l 460 101 l 461 99 q 485 42 527 0 l 348 0 q 350 2 354 8 q 373 37 373 49 q 373 60 364 80 q 363 81 363 82 l 275 287 l 110 75 q 103 65 98 56 q 94 47 94 40 q 94 33 113 5 l 117 0 l -55 0 q -26 20 -2 41 q 21 62 42 86 l 256 335 l 157 573 q 147 598 132 618 q 118 638 97 655 z"},"*":{"x_min":0,"x_max":336,"ha":336,"o":"m 210 682 l 261 682 l 208 531 l 317 652 l 347 615 l 210 529 l 367 553 l 358 503 l 209 527 l 316 437 l 281 406 l 208 526 l 204 375 l 154 375 l 207 525 l 94 405 l 64 440 l 204 527 l 48 502 l 56 552 l 205 528 l 97 624 l 136 656 l 206 530 z"},"Y":{"x_min":0,"x_max":505,"ha":505,"o":"m 27 655 l 202 655 q 188 639 183 629 q 177 618 177 610 q 177 602 179 594 q 180 585 184 575 l 268 316 l 443 582 q 450 593 454 602 q 457 610 457 617 q 457 627 435 653 l 433 655 l 605 655 q 561 624 540 604 q 519 583 503 562 l 287 264 l 260 103 q 260 102 259 98 q 257 81 257 68 q 257 56 264 39 q 271 23 286 0 l 103 0 q 130 31 144 56 q 157 82 162 112 l 187 264 l 89 559 q 79 588 64 611 q 50 633 27 655 z"},"c":{"x_min":0,"x_max":384,"ha":384,"o":"m 381 456 l 362 353 l 277 417 q 269 423 260 427 q 250 430 242 430 q 196 430 157 352 q 117 274 117 173 q 117 118 134 92 q 151 66 187 66 q 219 66 255 78 q 292 90 338 117 q 293 56 240 22 q 188 -11 138 -11 q 80 -11 48 32 q 16 75 16 152 q 16 219 37 280 q 58 341 98 393 q 129 434 173 454 q 216 474 272 474 q 293 474 319 470 q 344 466 381 456 z"},"!":{"x_min":0,"x_max":254,"ha":254,"o":"m 91 105 q 118 105 132 91 q 147 77 147 51 q 147 21 130 4 q 114 -12 84 -12 q 56 -12 42 0 q 28 13 28 38 q 28 68 45 87 q 62 105 91 105 z m 231 564 l 136 161 l 81 161 l 117 559 q 124 627 137 645 q 151 663 185 663 q 212 663 226 652 q 240 640 240 618 q 240 609 238 596 q 236 583 231 564 z"},"/":{"x_min":0,"x_max":235,"ha":235,"o":"m 213 681 l 267 681 l -9 -152 l -66 -152 z"},"[":{"x_min":0,"x_max":259,"ha":259,"o":"m 163 712 l 308 712 q 261 673 244 650 q 228 626 221 590 l 105 -65 q 103 -77 101 -88 q 100 -100 100 -109 q 100 -125 110 -147 q 121 -170 145 -207 l 1 -207 z"},"6":{"x_min":0,"x_max":500,"ha":500,"o":"m 151 319 q 141 275 136 235 q 131 195 131 159 q 131 94 156 59 q 181 23 226 23 q 276 23 307 73 q 339 124 339 206 q 339 268 309 298 q 280 328 219 328 q 205 328 187 326 q 170 323 151 319 z m 525 609 q 504 615 484 618 q 464 621 446 621 q 337 621 263 552 q 189 484 159 355 q 191 367 221 373 q 251 379 279 379 q 354 379 399 332 q 445 285 445 207 q 445 110 383 47 q 321 -16 226 -16 q 136 -16 83 38 q 31 91 31 184 q 31 267 52 347 q 73 427 112 494 q 161 578 231 621 q 301 665 385 665 q 429 665 466 650 q 502 636 525 609 z"},"r":{"x_min":0,"x_max":345,"ha":345,"o":"m 196 470 l 172 339 q 238 422 266 445 q 294 468 319 468 q 329 468 337 465 q 346 462 355 457 l 336 353 q 321 363 307 368 q 292 373 278 373 q 254 373 228 363 q 202 352 170 329 l 110 0 l 17 0 l 76 332 q 76 333 77 335 q 80 354 80 363 q 80 379 73 397 q 66 415 51 437 z"},"2":{"x_min":0,"x_max":500,"ha":500,"o":"m 256 224 l 90 83 l 250 83 q 290 83 319 97 q 349 111 388 151 l 362 0 l -49 0 l 222 278 q 286 343 319 404 q 352 465 352 517 q 352 564 326 593 q 300 622 259 622 q 243 622 226 615 q 210 608 190 592 l 83 504 l 109 644 q 165 655 203 659 q 242 664 271 664 q 360 664 411 625 q 463 585 463 519 q 463 455 419 390 q 375 326 256 224 z"},"{":{"x_min":0,"x_max":500,"ha":500,"o":"m 423 648 l 403 648 q 344 648 324 626 q 304 604 304 536 l 304 418 q 304 340 282 307 q 261 273 206 259 q 261 245 283 212 q 304 179 304 100 l 304 -18 q 304 -87 324 -108 q 345 -130 404 -130 l 423 -130 l 423 -202 l 402 -202 q 349 -202 319 -197 q 290 -191 269 -178 q 242 -162 231 -131 q 220 -100 220 -28 l 220 92 q 220 165 194 194 q 167 224 103 224 q 100 224 93 224 q 85 223 82 223 l 82 296 q 86 296 93 295 q 101 295 104 295 q 167 295 194 324 q 220 354 220 426 l 220 546 q 220 618 231 649 q 242 679 269 696 q 291 709 322 715 q 353 721 405 721 l 423 721 z"},"9":{"x_min":0,"x_max":500,"ha":500,"o":"m -25 42 q -1 37 18 34 q 38 31 55 31 q 166 31 236 95 q 306 160 340 294 q 307 281 278 274 q 250 268 224 268 q 147 268 101 315 q 54 363 54 441 q 54 537 117 602 q 180 667 274 667 q 362 667 416 611 q 469 556 469 465 q 469 380 448 301 q 427 221 388 154 q 342 74 272 30 q 202 -14 123 -14 q 77 -14 39 0 q 1 15 -25 42 z m 349 328 q 358 376 363 415 q 367 454 367 481 q 367 550 344 587 q 320 625 278 625 q 224 625 191 575 q 159 525 159 440 q 159 382 190 350 q 220 319 277 319 q 292 319 311 321 q 330 324 349 328 z"}," ":{"x_min":0,"x_max":250,"ha":250,"o":""},"I":{"x_min":0,"x_max":269,"ha":269,"o":"m 99 655 l 279 655 q 254 630 241 604 q 228 578 220 533 l 147 109 q 147 108 146 106 q 144 89 144 73 q 144 59 151 41 q 159 22 174 0 l -9 0 q 18 26 32 54 q 46 81 53 121 l 126 546 q 126 547 126 550 q 129 568 129 582 q 129 595 122 613 q 114 631 99 655 z"},"H":{"x_min":0,"x_max":617,"ha":617,"o":"m 97 655 l 278 655 q 253 629 240 603 q 226 577 219 533 l 190 363 l 442 363 l 474 547 q 476 556 476 564 q 477 572 477 580 q 477 597 470 615 q 463 632 448 655 l 628 655 q 583 612 569 537 l 569 534 l 496 110 q 496 108 495 104 q 492 87 492 74 q 492 60 499 42 q 506 23 521 0 l 340 0 q 364 25 378 51 q 391 76 400 123 l 434 321 l 183 321 l 146 109 q 146 106 145 102 q 142 85 142 73 q 142 59 149 41 q 157 22 172 0 l -10 0 q 16 26 30 53 q 44 80 51 121 l 125 546 q 125 547 125 550 q 128 568 128 582 q 128 595 120 613 q 113 630 97 655 z"},"4":{"x_min":0,"x_max":500,"ha":500,"o":"m 339 557 l 91 258 l 287 258 z m 446 670 l 376 258 l 460 258 l 444 186 l 364 186 l 352 106 q 352 104 351 99 q 348 82 348 70 q 348 59 354 43 q 360 27 375 0 l 201 0 q 227 30 241 56 q 255 83 261 120 l 273 186 l -16 186 l 363 641 z"},"~":{"x_min":0,"x_max":833,"ha":833,"o":"m 747 300 q 696 265 650 248 q 604 231 557 231 q 512 231 432 259 q 421 263 416 265 l 408 268 q 322 297 275 297 q 234 297 189 279 q 145 261 87 220 l 87 296 q 139 331 186 349 q 232 366 276 366 q 306 366 338 360 q 370 353 418 336 q 426 333 441 328 q 519 300 558 300 q 601 300 646 318 q 690 336 747 376 z"},"D":{"x_min":0,"x_max":620,"ha":620,"o":"m 229 614 l 131 41 l 208 41 q 270 41 313 62 q 357 84 401 137 q 434 176 458 258 q 481 339 481 424 q 481 513 435 563 q 389 614 308 614 z m 94 655 l 318 655 q 455 655 521 596 q 586 538 586 415 q 586 328 558 248 q 530 168 479 110 q 430 54 361 27 q 292 0 197 0 l -12 0 q 12 24 26 49 q 40 74 48 121 l 121 546 q 124 559 124 565 q 125 571 125 577 q 125 592 118 610 q 111 628 94 655 z"},"^":{"x_min":0,"x_max":1000,"ha":1000,"o":"m 545 712 l 794 440 l 706 440 l 500 645 l 293 440 l 205 440 l 454 712 z"},"0":{"x_min":0,"x_max":500,"ha":500,"o":"m 368 494 q 368 558 348 589 q 329 621 289 621 q 260 621 235 597 q 210 573 193 527 q 164 448 147 349 q 130 250 130 156 q 130 90 148 59 q 167 28 207 28 q 242 28 270 59 q 297 90 314 149 q 340 238 354 329 q 368 420 368 494 z m 304 667 q 382 667 425 607 q 468 547 468 439 q 468 367 451 290 q 435 213 404 142 q 371 67 314 25 q 258 -16 189 -16 q 113 -16 71 42 q 28 100 28 204 q 28 294 49 381 q 70 467 108 535 q 144 598 195 633 q 246 667 304 667 z"},"F":{"x_min":0,"x_max":449,"ha":449,"o":"m 98 655 l 481 655 l 461 539 l 455 544 q 364 616 323 616 l 234 616 l 190 354 l 260 354 q 285 354 312 365 q 338 376 388 410 l 361 251 l 354 257 q 290 314 256 314 l 182 314 l 145 100 q 144 92 143 86 q 142 80 142 74 q 142 60 149 43 q 155 27 173 0 l -10 0 q 38 49 50 121 q 51 124 51 125 l 125 556 q 127 567 127 572 q 128 576 128 578 q 128 594 123 609 q 117 624 98 655 z"},"`":{"x_min":0,"x_max":500,"ha":500,"o":"m 169 691 l 286 691 l 316 549 l 303 549 z"},"k":{"x_min":0,"x_max":448,"ha":448,"o":"m 245 278 l 338 84 l 338 83 q 349 63 371 63 l 399 63 q 366 27 341 11 q 317 -6 298 -6 q 283 -6 273 3 q 264 11 254 33 l 159 251 l 159 258 l 265 337 q 289 354 301 372 q 313 389 313 404 q 313 408 312 412 q 312 416 310 419 l 296 446 l 299 447 q 359 474 378 474 q 400 474 413 462 q 426 449 426 429 q 426 408 405 386 q 385 364 332 332 z m 236 709 l 106 0 l 15 0 l 119 577 q 121 584 121 592 q 122 600 122 606 q 122 614 120 622 q 118 630 113 639 l 94 675 z"},"u":{"x_min":0,"x_max":476,"ha":476,"o":"m 192 470 l 127 125 q 127 125 126 122 q 123 105 123 97 q 123 83 131 76 q 138 69 154 69 q 173 69 205 81 q 237 93 276 116 l 335 444 l 433 468 l 366 97 q 365 93 365 89 q 364 85 364 80 q 364 70 368 67 q 373 64 387 64 l 417 64 q 382 27 354 10 q 326 -8 300 -8 q 282 -8 273 2 q 263 13 263 32 q 263 39 264 48 q 265 56 267 66 l 275 105 q 215 47 169 20 q 123 -8 85 -8 q 55 -8 39 8 q 22 24 22 53 q 22 61 23 72 q 25 83 29 104 l 71 331 q 71 333 72 338 q 76 355 76 366 q 76 379 69 396 q 62 414 48 437 z"},"]":{"x_min":0,"x_max":259,"ha":259,"o":"m 109 712 l 254 712 l 92 -207 l -54 -207 q -5 -167 11 -144 q 27 -121 33 -86 l 150 569 q 153 586 154 596 q 155 606 155 613 q 155 626 147 645 q 139 663 109 712 z"},"U":{"x_min":0,"x_max":595,"ha":595,"o":"m 89 655 l 270 655 q 245 632 231 607 q 217 583 211 542 l 153 204 q 150 188 148 172 q 147 157 147 143 q 147 89 181 61 q 215 32 279 32 q 350 32 385 69 q 420 106 436 202 l 496 551 q 498 561 498 570 q 499 580 499 587 q 499 600 493 616 q 486 631 471 655 l 620 655 q 596 628 582 601 q 569 575 562 537 l 506 219 q 492 137 477 103 q 463 68 439 45 q 409 15 365 0 q 321 -14 259 -14 q 160 -14 104 30 q 49 73 49 151 q 49 167 52 188 q 54 210 59 236 l 114 552 q 116 563 117 571 q 118 578 118 583 q 118 597 112 614 q 105 630 89 655 z"},"o":{"x_min":0,"x_max":456,"ha":456,"o":"m 317 328 q 317 383 299 412 q 280 441 245 441 q 217 441 193 419 q 168 396 151 355 q 129 304 118 248 q 106 191 106 139 q 106 79 124 49 q 141 19 176 19 q 204 19 229 42 q 253 64 271 106 q 293 160 305 217 q 317 274 317 328 z m 254 474 q 332 474 375 431 q 417 388 417 309 q 417 256 404 205 q 392 153 369 114 q 329 44 281 15 q 232 -15 159 -15 q 90 -15 48 31 q 6 77 6 152 q 6 293 76 384 q 146 474 254 474 z"},"N":{"x_min":0,"x_max":606,"ha":606,"o":"m 94 655 l 211 655 l 447 181 l 510 555 q 512 564 512 572 q 513 579 513 585 q 513 608 481 654 l 481 655 l 624 655 q 579 609 567 544 q 566 541 566 539 l 470 -9 l 433 -9 l 172 517 l 103 107 q 103 104 102 100 q 98 82 98 70 q 98 60 104 45 q 111 31 130 0 l -12 0 q 35 51 50 129 l 50 131 l 122 551 q 123 555 124 561 q 126 577 126 584 q 126 596 120 610 q 114 625 94 655 z"},"+":{"x_min":0,"x_max":833,"ha":833,"o":"m 451 596 l 451 332 l 709 332 l 709 264 l 451 264 l 451 0 l 382 0 l 382 264 l 124 264 l 124 332 l 382 332 l 382 596 z"},"G":{"x_min":0,"x_max":591,"ha":591,"o":"m 587 637 l 567 524 l 486 588 q 465 604 445 612 q 424 619 400 619 q 285 619 211 511 q 137 404 137 232 q 137 132 183 82 q 229 31 321 31 q 332 31 346 32 q 361 34 379 37 l 400 173 q 401 179 401 185 q 402 190 402 197 q 402 211 396 228 q 389 244 373 269 l 558 269 q 528 237 514 210 q 500 184 494 149 l 472 14 q 425 1 377 -6 q 329 -12 279 -12 q 162 -12 96 52 q 31 115 31 230 q 31 315 53 391 q 76 467 120 527 q 169 595 243 630 q 317 665 412 665 q 454 665 497 658 q 541 651 587 637 z"},"q":{"x_min":0,"x_max":466,"ha":466,"o":"m 325 404 q 312 409 300 412 q 288 415 276 415 q 244 415 220 404 q 196 392 177 367 q 144 324 126 265 q 108 207 108 142 q 108 105 122 86 q 135 67 161 67 q 179 67 207 79 q 236 90 273 113 z m 429 469 l 330 -92 q 327 -108 326 -119 q 324 -130 324 -135 q 324 -148 331 -166 q 337 -184 351 -206 l 176 -206 q 223 -158 237 -84 l 237 -83 l 271 101 q 213 38 177 15 q 141 -9 107 -9 q 60 -9 35 27 q 10 63 10 132 q 10 201 30 264 q 50 328 87 378 q 125 428 166 451 q 207 474 257 474 q 273 474 292 467 q 311 459 341 440 z"},"d":{"x_min":0,"x_max":469,"ha":469,"o":"m 321 408 q 308 414 295 417 q 282 420 271 420 q 239 420 211 402 q 184 383 160 346 q 135 306 120 253 q 105 201 105 153 q 105 110 119 89 q 132 69 161 69 q 176 69 199 78 q 222 88 269 114 z m 463 710 l 469 709 l 359 97 q 357 90 357 85 q 356 80 356 78 q 356 71 360 68 q 365 65 376 65 l 408 65 q 376 29 346 11 q 316 -8 291 -8 q 275 -8 265 2 q 255 12 255 27 q 255 38 255 43 q 256 49 257 54 l 267 104 q 209 42 172 17 q 135 -8 103 -8 q 58 -8 32 30 q 6 68 6 136 q 6 186 18 237 q 31 288 53 330 q 89 398 140 436 q 190 474 245 474 q 262 474 282 468 q 301 461 329 446 l 354 579 q 354 583 356 590 q 358 598 358 601 q 358 612 355 623 q 353 633 347 642 l 325 678 z"},"1":{"x_min":0,"x_max":500,"ha":500,"o":"m 372 677 l 277 109 q 275 98 274 89 q 273 81 273 72 q 273 58 281 40 q 288 22 304 0 l 120 0 q 146 30 160 58 q 175 86 182 127 l 252 544 l 99 523 q 194 569 258 606 q 322 642 372 677 z"},"5":{"x_min":0,"x_max":500,"ha":500,"o":"m 142 657 l 492 657 l 477 573 l 178 573 l 149 405 q 170 410 191 413 q 212 415 234 415 q 326 415 379 367 q 431 319 431 234 q 431 124 356 54 q 281 -15 161 -15 q 120 -15 77 -6 q 34 3 -12 21 l 12 153 l 22 142 q 124 28 166 28 q 230 28 277 85 q 323 143 323 225 q 323 294 287 329 q 250 364 178 364 q 160 364 137 361 q 114 359 89 354 z"}}}
